<svg class="main-svg" xmlns="http://www.w3.org/2000/svg" xmlns:xlink="http://www.w3.org/1999/xlink" width="700" height="500" style="" viewBox="0 0 700 500"><rect x="0" y="0" width="700" height="500" style="fill: rgb(255, 255, 255); fill-opacity: 1;"/><defs id="defs-761afd"><g class="clips"><clipPath id="clip761afdxyplot" class="plotclip"><rect width="540" height="330"/></clipPath><clipPath class="axesclip" id="clip761afdx"><rect x="80" y="0" width="540" height="500"/></clipPath><clipPath class="axesclip" id="clip761afdy"><rect x="0" y="60" width="700" height="330"/></clipPath><clipPath class="axesclip" id="clip761afdxy"><rect x="80" y="60" width="540" height="330"/></clipPath></g><g class="gradients"/><g class="patterns"/></defs><g class="bglayer"><rect class="bg" x="80" y="60" width="540" height="330" style="fill: rgb(229, 236, 246); fill-opacity: 1; stroke-width: 0;"/></g><g class="layer-below"><g class="imagelayer"/><g class="shapelayer"/></g><g class="cartesianlayer"><g class="subplot xy"><g class="layer-subplot"><g class="shapelayer"/><g class="imagelayer"/></g><g class="minor-gridlayer"><g class="x"/><g class="y"/></g><g class="gridlayer"><g class="x"><path class="xgrid crisp" transform="translate(136.71,0)" d="M0,60v330" style="stroke: rgb(255, 255, 255); stroke-opacity: 1; stroke-width: 1px;"/><path class="xgrid crisp" transform="translate(225.11,0)" d="M0,60v330" style="stroke: rgb(255, 255, 255); stroke-opacity: 1; stroke-width: 1px;"/><path class="xgrid crisp" transform="translate(313.5,0)" d="M0,60v330" style="stroke: rgb(255, 255, 255); stroke-opacity: 1; stroke-width: 1px;"/><path class="xgrid crisp" transform="translate(401.9,0)" d="M0,60v330" style="stroke: rgb(255, 255, 255); stroke-opacity: 1; stroke-width: 1px;"/><path class="xgrid crisp" transform="translate(490.29,0)" d="M0,60v330" style="stroke: rgb(255, 255, 255); stroke-opacity: 1; stroke-width: 1px;"/><path class="xgrid crisp" transform="translate(578.69,0)" d="M0,60v330" style="stroke: rgb(255, 255, 255); stroke-opacity: 1; stroke-width: 1px;"/></g><g class="y"><path class="ygrid crisp" transform="translate(0,314.55)" d="M80,0h540" style="stroke: rgb(255, 255, 255); stroke-opacity: 1; stroke-width: 1px;"/><path class="ygrid crisp" transform="translate(0,240.14)" d="M80,0h540" style="stroke: rgb(255, 255, 255); stroke-opacity: 1; stroke-width: 1px;"/><path class="ygrid crisp" transform="translate(0,165.73000000000002)" d="M80,0h540" style="stroke: rgb(255, 255, 255); stroke-opacity: 1; stroke-width: 1px;"/><path class="ygrid crisp" transform="translate(0,91.33)" d="M80,0h540" style="stroke: rgb(255, 255, 255); stroke-opacity: 1; stroke-width: 1px;"/></g></g><g class="zerolinelayer"><path class="yzl zl crisp" transform="translate(0,388.95)" d="M80,0h540" style="stroke: rgb(255, 255, 255); stroke-opacity: 1; stroke-width: 2px;"/></g><g class="layer-between"><g class="shapelayer"/><g class="imagelayer"/></g><path class="xlines-below"/><path class="ylines-below"/><g class="overlines-below"/><g class="xaxislayer-below"/><g class="yaxislayer-below"/><g class="overaxes-below"/><g class="overplot"><g class="xy" transform="translate(80,60)" clip-path="url(#clip761afdxyplot)"><g class="scatterlayer mlayer"><g class="trace scatter trace403202" style="stroke-miterlimit: 2; opacity: 1;"><g class="fills"/><g class="errorbars"/><g class="lines"/><g class="points"><path class="point" transform="translate(56.71,46.21)" d="M23.77,0A23.77,23.77 0 1,1 0,-23.77A23.77,23.77 0 0,1 23.77,0Z" style="opacity: 0.7; stroke-width: 1px; fill: rgb(228, 57, 33); fill-opacity: 1; stroke: rgb(255, 255, 255); stroke-opacity: 1;"/><path class="point" transform="translate(145.11,46.21)" d="M23.77,0A23.77,23.77 0 1,1 0,-23.77A23.77,23.77 0 0,1 23.77,0Z" style="opacity: 0.7; stroke-width: 1px; fill: rgb(0, 199, 212); fill-opacity: 1; stroke: rgb(255, 255, 255); stroke-opacity: 1;"/><path class="point" transform="translate(233.5,120.62)" d="M20.14,0A20.14,20.14 0 1,1 0,-20.14A20.14,20.14 0 0,1 20.14,0Z" style="opacity: 0.7; stroke-width: 1px; fill: rgb(0, 173, 70); fill-opacity: 1; stroke: rgb(255, 255, 255); stroke-opacity: 1;"/><path class="point" transform="translate(321.9,180.14)" d="M17.25,0A17.25,17.25 0 1,1 0,-17.25A17.25,17.25 0 0,1 17.25,0Z" style="opacity: 0.7; stroke-width: 1px; fill: rgb(1, 124, 238); fill-opacity: 1; stroke: rgb(255, 255, 255); stroke-opacity: 1;"/><path class="point" transform="translate(410.29,254.55)" d="M13.62,0A13.62,13.62 0 1,1 0,-13.62A13.62,13.62 0 0,1 13.62,0Z" style="opacity: 0.7; stroke-width: 1px; fill: rgb(84, 167, 243); fill-opacity: 1; stroke: rgb(255, 255, 255); stroke-opacity: 1;"/><path class="point" transform="translate(498.69,299.19)" d="M11.45,0A11.45,11.45 0 1,1 0,-11.45A11.45,11.45 0 0,1 11.45,0Z" style="opacity: 0.7; stroke-width: 1px; fill: rgb(74, 72, 72); fill-opacity: 1; stroke: rgb(255, 255, 255); stroke-opacity: 1;"/></g><g class="text"><g class="textpoint" transform="translate(0,2.5)"><text x="56.71" y="46.21" text-anchor="middle" style="font-family: 'Open Sans', verdana, arial, sans-serif; font-size: 10px; fill: rgb(255, 255, 255); fill-opacity: 1; font-weight: bold; white-space: pre;">19</text></g><g class="textpoint" transform="translate(0,2.5)"><text x="145.11" y="46.21" text-anchor="middle" style="font-family: 'Open Sans', verdana, arial, sans-serif; font-size: 10px; fill: rgb(255, 255, 255); fill-opacity: 1; font-weight: bold; white-space: pre;">19</text></g><g class="textpoint" transform="translate(0,2.5)"><text x="233.5" y="120.62" text-anchor="middle" style="font-family: 'Open Sans', verdana, arial, sans-serif; font-size: 10px; fill: rgb(255, 255, 255); fill-opacity: 1; font-weight: bold; white-space: pre;">14</text></g><g class="textpoint" transform="translate(0,2.5)"><text x="321.9" y="180.14" text-anchor="middle" style="font-family: 'Open Sans', verdana, arial, sans-serif; font-size: 10px; fill: rgb(255, 255, 255); fill-opacity: 1; font-weight: bold; white-space: pre;">10</text></g><g class="textpoint" transform="translate(0,2.5)"><text x="410.29" y="254.55" text-anchor="middle" style="font-family: 'Open Sans', verdana, arial, sans-serif; font-size: 10px; fill: rgb(255, 255, 255); fill-opacity: 1; font-weight: bold; white-space: pre;">5</text></g><g class="textpoint" transform="translate(0,2.5)"><text x="498.69" y="299.19" text-anchor="middle" style="font-family: 'Open Sans', verdana, arial, sans-serif; font-size: 10px; fill: rgb(255, 255, 255); fill-opacity: 1; font-weight: bold; white-space: pre;">2</text></g></g></g></g></g></g><path class="xlines-above crisp" d="M0,0" style="fill: none;"/><path class="ylines-above crisp" d="M0,0" style="fill: none;"/><g class="overlines-above"/><g class="xaxislayer-above"><g class="xtick"><text text-anchor="start" x="0" y="406" transform="translate(136.71,0) rotate(29.999999999999996,0,398.5)" style="font-family: 'Open Sans', verdana, arial, sans-serif; font-size: 15px; fill: rgb(0, 0, 0); fill-opacity: 1; white-space: pre; opacity: 1;">Never</text></g><g class="xtick"><text text-anchor="start" x="0" y="406" transform="translate(225.11,0) rotate(29.999999999999996,0,398.5)" style="font-family: 'Open Sans', verdana, arial, sans-serif; font-size: 15px; fill: rgb(0, 0, 0); fill-opacity: 1; white-space: pre; opacity: 1;">Often</text></g><g class="xtick"><text text-anchor="start" x="0" y="406" transform="translate(313.5,0) rotate(29.999999999999996,0,398.5)" style="font-family: 'Open Sans', verdana, arial, sans-serif; font-size: 15px; fill: rgb(0, 0, 0); fill-opacity: 1; white-space: pre; opacity: 1;">Always</text></g><g class="xtick"><text text-anchor="start" x="0" y="406" transform="translate(401.9,0) rotate(29.999999999999996,0,398.5)" style="font-family: 'Open Sans', verdana, arial, sans-serif; font-size: 15px; fill: rgb(0, 0, 0); fill-opacity: 1; white-space: pre; opacity: 1;">Rarely</text></g><g class="xtick"><text text-anchor="start" x="0" y="406" transform="translate(490.29,0) rotate(29.999999999999996,0,398.5)" style="font-family: 'Open Sans', verdana, arial, sans-serif; font-size: 15px; fill: rgb(0, 0, 0); fill-opacity: 1; white-space: pre; opacity: 1;">Sometimes</text></g><g class="xtick"><text text-anchor="start" x="0" y="406" transform="translate(578.69,0) rotate(29.999999999999996,0,398.5)" style="font-family: 'Open Sans', verdana, arial, sans-serif; font-size: 15px; fill: rgb(0, 0, 0); fill-opacity: 1; white-space: pre; opacity: 1;">Not Answered</text></g></g><g class="yaxislayer-above"><g class="ytick"><text text-anchor="end" x="79" y="5.25" transform="translate(0,388.95)" style="font-family: 'Open Sans', verdana, arial, sans-serif; font-size: 15px; fill: rgb(0, 0, 0); fill-opacity: 1; white-space: pre; opacity: 1;">0</text></g><g class="ytick"><text text-anchor="end" x="79" y="5.25" style="font-family: 'Open Sans', verdana, arial, sans-serif; font-size: 15px; fill: rgb(0, 0, 0); fill-opacity: 1; white-space: pre; opacity: 1;" transform="translate(0,314.55)">5</text></g><g class="ytick"><text text-anchor="end" x="79" y="5.25" style="font-family: 'Open Sans', verdana, arial, sans-serif; font-size: 15px; fill: rgb(0, 0, 0); fill-opacity: 1; white-space: pre; opacity: 1;" transform="translate(0,240.14)">10</text></g><g class="ytick"><text text-anchor="end" x="79" y="5.25" style="font-family: 'Open Sans', verdana, arial, sans-serif; font-size: 15px; fill: rgb(0, 0, 0); fill-opacity: 1; white-space: pre; opacity: 1;" transform="translate(0,165.73000000000002)">15</text></g><g class="ytick"><text text-anchor="end" x="79" y="5.25" style="font-family: 'Open Sans', verdana, arial, sans-serif; font-size: 15px; fill: rgb(0, 0, 0); fill-opacity: 1; white-space: pre; opacity: 1;" transform="translate(0,91.33)">20</text></g></g><g class="overaxes-above"/></g></g><g class="polarlayer"/><g class="smithlayer"/><g class="ternarylayer"/><g class="geolayer"/><g class="funnelarealayer"/><g class="pielayer"/><g class="iciclelayer"/><g class="treemaplayer"/><g class="sunburstlayer"/><g class="glimages"/><defs id="topdefs-761afd"><g class="clips"/></defs><g class="layer-above"><g class="imagelayer"/><g class="shapelayer"/></g><g class="infolayer"><g class="g-gtitle"/><g class="g-xtitle"><text class="xtitle" x="350" y="487.178125" text-anchor="middle" style="opacity: 1; font-family: 'Open Sans', verdana, arial, sans-serif; font-size: 18px; fill: rgb(0, 0, 0); fill-opacity: 1; white-space: pre;">Choices</text></g><g class="g-ytitle"><text class="ytitle" transform="rotate(-90,39.121875,225)" x="39.121875" y="225" text-anchor="middle" style="opacity: 1; font-family: 'Open Sans', verdana, arial, sans-serif; font-size: 18px; fill: rgb(0, 0, 0); fill-opacity: 1; white-space: pre;">Number of Responses</text></g></g></svg>