<svg class="main-svg" xmlns="http://www.w3.org/2000/svg" xmlns:xlink="http://www.w3.org/1999/xlink" width="700" height="500" style="" viewBox="0 0 700 500"><rect x="0" y="0" width="700" height="500" style="fill: rgb(255, 255, 255); fill-opacity: 1;"/><defs id="defs-e26817"><g class="clips"><clipPath id="clipe26817xyplot" class="plotclip"><rect width="540" height="330"/></clipPath><clipPath class="axesclip" id="clipe26817x"><rect x="80" y="0" width="540" height="500"/></clipPath><clipPath class="axesclip" id="clipe26817y"><rect x="0" y="60" width="700" height="330"/></clipPath><clipPath class="axesclip" id="clipe26817xy"><rect x="80" y="60" width="540" height="330"/></clipPath></g><g class="gradients"/><g class="patterns"/></defs><g class="bglayer"><rect class="bg" x="80" y="60" width="540" height="330" style="fill: rgb(229, 236, 246); fill-opacity: 1; stroke-width: 0;"/></g><g class="layer-below"><g class="imagelayer"/><g class="shapelayer"/></g><g class="cartesianlayer"><g class="subplot xy"><g class="layer-subplot"><g class="shapelayer"/><g class="imagelayer"/></g><g class="minor-gridlayer"><g class="x"/><g class="y"/></g><g class="gridlayer"><g class="x"><path class="xgrid crisp" transform="translate(148.49,0)" d="M0,60v330" style="stroke: rgb(255, 255, 255); stroke-opacity: 1; stroke-width: 1px;"/><path class="xgrid crisp" transform="translate(233.98,0)" d="M0,60v330" style="stroke: rgb(255, 255, 255); stroke-opacity: 1; stroke-width: 1px;"/><path class="xgrid crisp" transform="translate(319.48,0)" d="M0,60v330" style="stroke: rgb(255, 255, 255); stroke-opacity: 1; stroke-width: 1px;"/><path class="xgrid crisp" transform="translate(404.98,0)" d="M0,60v330" style="stroke: rgb(255, 255, 255); stroke-opacity: 1; stroke-width: 1px;"/><path class="xgrid crisp" transform="translate(490.47,0)" d="M0,60v330" style="stroke: rgb(255, 255, 255); stroke-opacity: 1; stroke-width: 1px;"/><path class="xgrid crisp" transform="translate(575.97,0)" d="M0,60v330" style="stroke: rgb(255, 255, 255); stroke-opacity: 1; stroke-width: 1px;"/></g><g class="y"><path class="ygrid crisp" transform="translate(0,323.03)" d="M80,0h540" style="stroke: rgb(255, 255, 255); stroke-opacity: 1; stroke-width: 1px;"/><path class="ygrid crisp" transform="translate(0,285.06)" d="M80,0h540" style="stroke: rgb(255, 255, 255); stroke-opacity: 1; stroke-width: 1px;"/><path class="ygrid crisp" transform="translate(0,247.09)" d="M80,0h540" style="stroke: rgb(255, 255, 255); stroke-opacity: 1; stroke-width: 1px;"/><path class="ygrid crisp" transform="translate(0,209.12)" d="M80,0h540" style="stroke: rgb(255, 255, 255); stroke-opacity: 1; stroke-width: 1px;"/><path class="ygrid crisp" transform="translate(0,171.14)" d="M80,0h540" style="stroke: rgb(255, 255, 255); stroke-opacity: 1; stroke-width: 1px;"/><path class="ygrid crisp" transform="translate(0,133.17000000000002)" d="M80,0h540" style="stroke: rgb(255, 255, 255); stroke-opacity: 1; stroke-width: 1px;"/><path class="ygrid crisp" transform="translate(0,95.2)" d="M80,0h540" style="stroke: rgb(255, 255, 255); stroke-opacity: 1; stroke-width: 1px;"/></g></g><g class="zerolinelayer"><path class="yzl zl crisp" transform="translate(0,361)" d="M80,0h540" style="stroke: rgb(255, 255, 255); stroke-opacity: 1; stroke-width: 2px;"/></g><g class="layer-between"><g class="shapelayer"/><g class="imagelayer"/></g><path class="xlines-below"/><path class="ylines-below"/><g class="overlines-below"/><g class="xaxislayer-below"/><g class="yaxislayer-below"/><g class="overaxes-below"/><g class="overplot"><g class="xy" transform="translate(80,60)" clip-path="url(#clipe26817xyplot)"><g class="scatterlayer mlayer"><g class="trace scatter trace02454b" style="stroke-miterlimit: 2; opacity: 1;"><g class="fills"/><g class="errorbars"/><g class="lines"/><g class="points"><path class="point" transform="translate(68.49,57.99)" d="M33.19,0A33.19,33.19 0 1,1 0,-33.19A33.19,33.19 0 0,1 33.19,0Z" style="opacity: 0.7; stroke-width: 1px; fill: rgb(228, 57, 33); fill-opacity: 1; stroke: rgb(255, 255, 255); stroke-opacity: 1;"/><path class="point" transform="translate(153.98,164.3)" d="M23.04,0A23.04,23.04 0 1,1 0,-23.04A23.04,23.04 0 0,1 23.04,0Z" style="opacity: 0.7; stroke-width: 1px; fill: rgb(0, 199, 212); fill-opacity: 1; stroke: rgb(255, 255, 255); stroke-opacity: 1;"/><path class="point" transform="translate(239.48,217.46)" d="M17.97,0A17.97,17.97 0 1,1 0,-17.97A17.97,17.97 0 0,1 17.97,0Z" style="opacity: 0.7; stroke-width: 1px; fill: rgb(0, 173, 70); fill-opacity: 1; stroke: rgb(255, 255, 255); stroke-opacity: 1;"/><path class="point" transform="translate(324.98,278.22)" d="M12.17,0A12.17,12.17 0 1,1 0,-12.17A12.17,12.17 0 0,1 12.17,0Z" style="opacity: 0.7; stroke-width: 1px; fill: rgb(1, 124, 238); fill-opacity: 1; stroke: rgb(255, 255, 255); stroke-opacity: 1;"/><path class="point" transform="translate(410.47,301)" d="M10,0A10,10 0 1,1 0,-10A10,10 0 0,1 10,0Z" style="opacity: 0.7; stroke-width: 1px; fill: rgb(84, 167, 243); fill-opacity: 1; stroke: rgb(255, 255, 255); stroke-opacity: 1;"/><path class="point" transform="translate(495.97,263.03)" d="M13.62,0A13.62,13.62 0 1,1 0,-13.62A13.62,13.62 0 0,1 13.62,0Z" style="opacity: 0.7; stroke-width: 1px; fill: rgb(74, 72, 72); fill-opacity: 1; stroke: rgb(255, 255, 255); stroke-opacity: 1;"/></g><g class="text"><g class="textpoint" transform="translate(0,2.5)"><text x="68.49" y="57.99" text-anchor="middle" style="font-family: 'Open Sans', verdana, arial, sans-serif; font-size: 10px; fill: rgb(255, 255, 255); fill-opacity: 1; font-weight: bold; white-space: pre;">32</text></g><g class="textpoint" transform="translate(0,2.5)"><text x="153.98" y="164.3" text-anchor="middle" style="font-family: 'Open Sans', verdana, arial, sans-serif; font-size: 10px; fill: rgb(255, 255, 255); fill-opacity: 1; font-weight: bold; white-space: pre;">18</text></g><g class="textpoint" transform="translate(0,2.5)"><text x="239.48" y="217.46" text-anchor="middle" style="font-family: 'Open Sans', verdana, arial, sans-serif; font-size: 10px; fill: rgb(255, 255, 255); fill-opacity: 1; font-weight: bold; white-space: pre;">11</text></g><g class="textpoint" transform="translate(0,2.5)"><text x="324.98" y="278.22" text-anchor="middle" style="font-family: 'Open Sans', verdana, arial, sans-serif; font-size: 10px; fill: rgb(255, 255, 255); fill-opacity: 1; font-weight: bold; white-space: pre;">3</text></g><g class="textpoint" transform="translate(0,2.5)"><text x="410.47" y="301" text-anchor="middle" style="font-family: 'Open Sans', verdana, arial, sans-serif; font-size: 10px; fill: rgb(255, 255, 255); fill-opacity: 1; font-weight: bold; white-space: pre;">0</text></g><g class="textpoint" transform="translate(0,2.5)"><text x="495.97" y="263.03" text-anchor="middle" style="font-family: 'Open Sans', verdana, arial, sans-serif; font-size: 10px; fill: rgb(255, 255, 255); fill-opacity: 1; font-weight: bold; white-space: pre;">5</text></g></g></g></g></g></g><path class="xlines-above crisp" d="M0,0" style="fill: none;"/><path class="ylines-above crisp" d="M0,0" style="fill: none;"/><g class="overlines-above"/><g class="xaxislayer-above"><g class="xtick"><text text-anchor="start" x="0" y="406" transform="translate(148.49,0) rotate(29.999999999999996,0,398.5)" style="font-family: 'Open Sans', verdana, arial, sans-serif; font-size: 15px; fill: rgb(0, 0, 0); fill-opacity: 1; white-space: pre; opacity: 1;">Neutral</text></g><g class="xtick"><text text-anchor="start" x="0" y="406" transform="translate(233.98,0) rotate(29.999999999999996,0,398.5)" style="font-family: 'Open Sans', verdana, arial, sans-serif; font-size: 15px; fill: rgb(0, 0, 0); fill-opacity: 1; white-space: pre; opacity: 1;">Easy</text></g><g class="xtick"><text text-anchor="start" x="0" y="406" transform="translate(319.48,0) rotate(29.999999999999996,0,398.5)" style="font-family: 'Open Sans', verdana, arial, sans-serif; font-size: 15px; fill: rgb(0, 0, 0); fill-opacity: 1; white-space: pre; opacity: 1;">Difficult</text></g><g class="xtick"><text text-anchor="start" x="0" y="406" transform="translate(404.98,0) rotate(29.999999999999996,0,398.5)" style="font-family: 'Open Sans', verdana, arial, sans-serif; font-size: 15px; fill: rgb(0, 0, 0); fill-opacity: 1; white-space: pre; opacity: 1;">Very Easy</text></g><g class="xtick"><text text-anchor="start" x="0" y="406" transform="translate(490.47,0) rotate(29.999999999999996,0,398.5)" style="font-family: 'Open Sans', verdana, arial, sans-serif; font-size: 15px; fill: rgb(0, 0, 0); fill-opacity: 1; white-space: pre; opacity: 1;">Very Difficult</text></g><g class="xtick"><text text-anchor="start" x="0" y="406" transform="translate(575.97,0) rotate(29.999999999999996,0,398.5)" style="font-family: 'Open Sans', verdana, arial, sans-serif; font-size: 15px; fill: rgb(0, 0, 0); fill-opacity: 1; white-space: pre; opacity: 1;">Not Answered</text></g></g><g class="yaxislayer-above"><g class="ytick"><text text-anchor="end" x="79" y="5.25" transform="translate(0,361)" style="font-family: 'Open Sans', verdana, arial, sans-serif; font-size: 15px; fill: rgb(0, 0, 0); fill-opacity: 1; white-space: pre; opacity: 1;">0</text></g><g class="ytick"><text text-anchor="end" x="79" y="5.25" style="font-family: 'Open Sans', verdana, arial, sans-serif; font-size: 15px; fill: rgb(0, 0, 0); fill-opacity: 1; white-space: pre; opacity: 1;" transform="translate(0,323.03)">5</text></g><g class="ytick"><text text-anchor="end" x="79" y="5.25" style="font-family: 'Open Sans', verdana, arial, sans-serif; font-size: 15px; fill: rgb(0, 0, 0); fill-opacity: 1; white-space: pre; opacity: 1;" transform="translate(0,285.06)">10</text></g><g class="ytick"><text text-anchor="end" x="79" y="5.25" style="font-family: 'Open Sans', verdana, arial, sans-serif; font-size: 15px; fill: rgb(0, 0, 0); fill-opacity: 1; white-space: pre; opacity: 1;" transform="translate(0,247.09)">15</text></g><g class="ytick"><text text-anchor="end" x="79" y="5.25" style="font-family: 'Open Sans', verdana, arial, sans-serif; font-size: 15px; fill: rgb(0, 0, 0); fill-opacity: 1; white-space: pre; opacity: 1;" transform="translate(0,209.12)">20</text></g><g class="ytick"><text text-anchor="end" x="79" y="5.25" style="font-family: 'Open Sans', verdana, arial, sans-serif; font-size: 15px; fill: rgb(0, 0, 0); fill-opacity: 1; white-space: pre; opacity: 1;" transform="translate(0,171.14)">25</text></g><g class="ytick"><text text-anchor="end" x="79" y="5.25" style="font-family: 'Open Sans', verdana, arial, sans-serif; font-size: 15px; fill: rgb(0, 0, 0); fill-opacity: 1; white-space: pre; opacity: 1;" transform="translate(0,133.17000000000002)">30</text></g><g class="ytick"><text text-anchor="end" x="79" y="5.25" style="font-family: 'Open Sans', verdana, arial, sans-serif; font-size: 15px; fill: rgb(0, 0, 0); fill-opacity: 1; white-space: pre; opacity: 1;" transform="translate(0,95.2)">35</text></g></g><g class="overaxes-above"/></g></g><g class="polarlayer"/><g class="smithlayer"/><g class="ternarylayer"/><g class="geolayer"/><g class="funnelarealayer"/><g class="pielayer"/><g class="iciclelayer"/><g class="treemaplayer"/><g class="sunburstlayer"/><g class="glimages"/><defs id="topdefs-e26817"><g class="clips"/></defs><g class="layer-above"><g class="imagelayer"/><g class="shapelayer"/></g><g class="infolayer"><g class="g-gtitle"/><g class="g-xtitle"><text class="xtitle" x="350" y="487.178125" text-anchor="middle" style="opacity: 1; font-family: 'Open Sans', verdana, arial, sans-serif; font-size: 18px; fill: rgb(0, 0, 0); fill-opacity: 1; white-space: pre;">Choices</text></g><g class="g-ytitle"><text class="ytitle" transform="rotate(-90,39.121875,225)" x="39.121875" y="225" text-anchor="middle" style="opacity: 1; font-family: 'Open Sans', verdana, arial, sans-serif; font-size: 18px; fill: rgb(0, 0, 0); fill-opacity: 1; white-space: pre;">Number of Responses</text></g></g></svg>